<svg id="Capa_1" enable-background="new 0 0 510 510" height="512" viewBox="0 0 510 510" width="512" xmlns="http://www.w3.org/2000/svg"><g><path d="m510 90v-30c-24.326 0-509.426 0-510 0v30h30v30h-30v30h30v30h-30v30h30v30h-30v30h30v30h-30v30h30v30h-30v30h30v30h-30v30h510v-30h-30v-30h30v-30h-30v-30h30v-30h-30v-30h30v-30h-30v-30h30v-30h-30v-30h30v-30h-30v-30zm-60 330h-390v-330h390z"/><path d="m161.5 375v15h187v-15c0-31.154 25.346-56.5 56.5-56.5h15v-127h-15c-31.154 0-56.5-25.346-56.5-56.5v-15h-187v15c0 31.154-25.346 56.5-56.5 56.5h-15v127h15c31.154 0 56.5 25.346 56.5 56.5zm-41.5-154.802c35.698-6.267 63.931-34.5 70.198-70.198h129.604c6.268 35.698 34.5 63.931 70.198 70.198v69.604c-35.698 6.267-63.931 34.5-70.198 70.198h-129.604c-6.267-35.698-34.5-63.931-70.198-70.198z"/><path d="m255 300c24.814 0 45-20.187 45-45s-20.186-45-45-45c-24.813 0-45 20.187-45 45s20.187 45 45 45zm0-60c8.271 0 15 6.729 15 15s-6.729 15-15 15-15-6.729-15-15 6.729-15 15-15z"/><path d="m330 240h30v30h-30z"/><path d="m150 240h30v30h-30z"/><path d="m390 120h30v30h-30z"/><path d="m90 120h30v30h-30z"/><path d="m390 360h30v30h-30z"/><path d="m90 360h30v30h-30z"/></g></svg>