<?xml version="1.0" encoding="iso-8859-1"?>
<!-- Generator: Adobe Illustrator 19.0.0, SVG Export Plug-In . SVG Version: 6.00 Build 0)  -->
<svg version="1.1" id="Capa_1" xmlns="http://www.w3.org/2000/svg" xmlns:xlink="http://www.w3.org/1999/xlink" x="0px" y="0px"
	 viewBox="0 0 512 512" style="enable-background:new 0 0 0 0;" xml:space="preserve">
<g>
	<g>
		<path d="M497,452H15c-8.291,0-15,6.709-15,15v30c0,8.291,6.709,15,15,15h482c8.291,0,15-6.709,15-15v-30
			C512,458.709,505.291,452,497,452z"/>
	</g>
</g>
<g>
	<g>
		<path d="M256,0C131.928,0,31,100.928,31,225v197h60V225c0-90.981,74.019-165,165-165s165,74.019,165,165v197h60V225
			C481,100.928,380.072,0,256,0z"/>
	</g>
</g>
<g>
	<g>
		<path d="M271,91.516V270h120v-45C391,155.693,338.315,99.089,271,91.516z"/>
	</g>
</g>
<g>
	<g>
		<path d="M121,225v45h120V91.516C173.685,99.089,121,155.693,121,225z"/>
	</g>
</g>
<g>
	<g>
		<rect x="271" y="300" width="120" height="122"/>
	</g>
</g>
<g>
	<g>
		<rect x="121" y="300" width="120" height="122"/>
	</g>
</g>
<g>
</g>
<g>
</g>
<g>
</g>
<g>
</g>
<g>
</g>
<g>
</g>
<g>
</g>
<g>
</g>
<g>
</g>
<g>
</g>
<g>
</g>
<g>
</g>
<g>
</g>
<g>
</g>
<g>
</g>
</svg>
